{"title":"FakeTaxi.Bella.2014xXx-ViORiX","uid":10685196,"size":1816464448,"categoryP":"porn","categoryS":"movie_clips","magnet":"?xt=urn:btih:cb4346c13dff42581f160b660f45a6c31893328f&amp;dn=FakeTaxi.Bella.2014xXx-ViORiX&amp;tr=udp%3A%2F%2Ftracker.openbittorrent.com%3A80&amp;tr=udp%3A%2F%2Fopen.demonii.com%3A1337&amp;tr=udp%3A%2F%2Ftracker.coppersurfer.tk%3A6969&amp;tr=udp%3A%2F%2Fexodus.desync.com%3A6969","seeders":1,"leechers":0,"uploader":"iH2OSO4","files":-1,"time":1407073089,"description":"There is no such thing as a free ride, and these fake taxi drivers decided to capitalize. Join their intrepid, dangerous, provocative adventurers as they drive around looking to get sex for fares that they aren't even licensed to give.\n\nGeneral\nComplete name   : FakeTaxi.Bella.2014xXx-ViORiX.mp4\n\nSource :     &lt;a href=&quot; http://vasileturcu.ro/i/9853875.html&quot; rel=&quot;nofollow&quot; target=&quot;_NEW&quot;&gt; http://vasileturcu.ro/i/9853875.html&lt;/a&gt;\n\nFormat                           : MPEG-4\nFormat profile                   : Base Media\nCodec ID                         : isom\nFile size                        : 1.69 GiB\nDuration                         : 21mn 57s\nOverall bit rate                 : 11.0 Mbps\nEncoded date                     : UTC 2014-08-02 05:54:53\nTagged date                      : UTC 2014-08-02 05:54:53\n\nVideo\nID                               : 1\nFormat                           : MPEG-4 Visual\nFormat profile                   : Simple@L1\nFormat settings, BVOP            : No\nFormat settings, QPel            : No\nFormat settings, GMC             : No warppoints\nFormat settings, Matrix          : Default (H.263)\nCodec ID                         : 20\nDuration                         : 21mn 57s\nBit rate mode                    : Variable\nBit rate                         : 10.9 Mbps\nMaximum bit rate                 : 30.2 Mbps\nWidth                            : 1 920 pixels\nHeight                           : 1 080 pixels\nDisplay aspect ratio             : 16:9\nFrame rate mode                  : Constant\nFrame rate                       : 25.000 fps\nColor space                      : YUV\nChroma subsampling               : 4:2:0\nBit depth                        : 8 bits\nScan type                        : Progressive\nCompression mode                 : Lossy\nBits/(Pixel*Frame)               : 0.210\nStream size                      : 1.67 GiB (99%)\nWriting library                  : Lavc53.8.0\nEncoded date                     : UTC 2014-08-02 05:54:53\nTagged date                      : UTC 2014-08-02 05:56:28\n\nAudio\nID                               : 2\nFormat                           : AAC\nFormat/Info                      : Advanced Audio Codec\nFormat profile                   : LC\nCodec ID                         : 40\nDuration                         : 21mn 57s\nBit rate mode                    : Variable\nBit rate                         : 128 Kbps\nMaximum bit rate                 : 159 Kbps\nChannel(s)                       : 2 channels\nChannel positions                : Front: L R\nSampling rate                    : 44.1 KHz\nCompression mode                 : Lossy\nStream size                      : 20.1 MiB (1%)\nEncoded date                     : UTC 2014-08-02 05:56:22\nTagged date                      : UTC 2014-08-02 05:56:28\n","torrent":{"xt":"urn:btih:cb4346c13dff42581f160b660f45a6c31893328f","amp;dn":"FakeTaxi.Bella.2014xXx-ViORiX","amp;tr":["udp%3A%2F%2Ftracker.openbittorrent.com%3A80","udp%3A%2F%2Fopen.demonii.com%3A1337","udp%3A%2F%2Ftracker.coppersurfer.tk%3A6969","udp%3A%2F%2Fexodus.desync.com%3A6969"],"infoHash":"cb4346c13dff42581f160b660f45a6c31893328f","infoHashBuffer":{"type":"Buffer","data":[203,67,70,193,61,255,66,88,31,22,11,102,15,69,166,195,24,147,50,143]},"announce":[],"urlList":[]}}